<?xml version="1.0" encoding="UTF-8"?> <svg xmlns="http://www.w3.org/2000/svg" xmlns:xlink="http://www.w3.org/1999/xlink" version="1.1" id="Layer_1" x="0px" y="0px" viewBox="0 0 222.3 44.9" style="enable-background:new 0 0 222.3 44.9;" xml:space="preserve"> <style type="text/css"> .st0{fill:#D3A42B;} .st1{fill:#FFFFFF;} </style> <path class="st0" d="M45.8,29l-6.6-16.7c-1-2.6-2.9-3.7-5-3.7h0c-2.1,0-3.9,1-5,3.7L27,17.8l0,0L25,23.1l0,0l0,0l-3.2,8.2 c-0.3,0.8-0.8,1.2-1.1,1.4c0,0,0,0,0,0c-0.1,0.1-0.2,0.1-0.4,0.1c0,0,0,0,0,0c-0.1,0-0.2,0-0.4,0h-8c-0.3,0-0.5-0.3-0.5-0.4 c-0.1-0.2-0.1-0.5,0-0.9L18,14.9c0.6-1.4,1.5-1.6,1.9-1.6c0,0,0,0,0,0c0.4,0,1.3,0.2,1.9,1.6L23,18l2.1-5.2l-0.2-0.5 c-1-2.6-2.9-3.7-5-3.7h0c-2.1,0-3.9,1-5,3.7L8.3,29c-0.8,1.9-1,3.4-0.2,5.3c0.8,1.9,2.3,2.6,3.8,2.6c0,0,0,0,0,0c0,0,0,0,0,0h8 c0.2,0,0.3,0,0.5,0c0,0,0,0,0,0c0,0,0,0,0,0c0.2,0,0.4,0,0.5,0c0.1,0,0.2,0,0.3,0c0.1,0,0.3,0,0.4-0.1c0.1,0,0.2-0.1,0.4-0.1 c0.1,0,0.2-0.1,0.3-0.1c0.1,0,0.3-0.1,0.4-0.2c0.1,0,0.2-0.1,0.3-0.1c0.1-0.1,0.2-0.1,0.3-0.2c0.1-0.1,0.2-0.1,0.3-0.2 c0,0,0.1-0.1,0.1-0.1c0.5-0.4,0.9-1,1.3-1.9l2.2-5.6l0,0l2-5.2l0,0l0,0l1.8-4.6l0,0l1.4-3.6c0.3-0.7,0.7-1.1,1-1.3c0,0,0,0,0,0 c0.3-0.2,0.7-0.3,0.9-0.3c0,0,0,0,0,0c0.4,0,1.3,0.2,1.9,1.6l6.6,16.7c0.1,0.4,0.1,0.7,0,0.9c-0.1,0.2-0.2,0.4-0.5,0.4h-8 c-0.8,0-1.5-0.6-1.9-1.6l-1.2-3.1l-2,5.2l0.2,0.5c1,2.6,2.9,3,5,3h8c0,0,0,0,0,0c0,0,0,0,0,0c1.5,0,3.1-0.7,3.9-2.6 C46.8,32.4,46.5,30.9,45.8,29z"></path> <g> <polygon class="st1" points="72.8,13 72.8,33.1 71.2,33.1 71.2,16.3 63.8,28.5 62.6,28.5 55.2,16.3 55.2,33.1 53.7,33.1 53.7,13 54.8,13 63.2,26.8 71.7,13 "></polygon> <rect x="78.3" y="13" class="st1" width="1.6" height="20.1"></rect> <path class="st1" d="M98,31.2c-1.1,0.5-2.3,0.7-3.6,0.7c-1.2,0-2.3-0.2-3.4-0.7c-1-0.4-1.9-1.1-2.7-1.9c-0.7-0.8-1.3-1.8-1.8-2.8 S86,24.3,86,23c0-1.3,0.2-2.4,0.6-3.5c0.4-1.1,1-2,1.8-2.8c0.8-0.8,1.6-1.4,2.7-1.9c1-0.4,2.1-0.7,3.3-0.7c1.3,0,2.5,0.2,3.5,0.7 c1.1,0.5,2,1.1,2.7,2l1.1-1.1c-0.9-1-2-1.7-3.2-2.3c-1.2-0.6-2.6-0.8-4.1-0.8c-1.4,0-2.7,0.3-4,0.8c-1.2,0.5-2.3,1.3-3.2,2.2 c-0.9,0.9-1.6,2-2.1,3.3c-0.5,1.3-0.7,2.6-0.7,4.1s0.3,2.8,0.8,4.1c0.5,1.3,1.2,2.4,2.1,3.3c0.9,0.9,2,1.7,3.2,2.2 c1.2,0.5,2.6,0.8,4,0.8c1.5,0,2.9-0.3,4.1-0.8c1.3-0.6,2.3-1.3,3.2-2.3l-1.1-1.1C100,30,99.1,30.7,98,31.2z"></path> <path class="st1" d="M113.1,23.9c1.3,0,2.4-0.2,3.3-0.7c0.9-0.5,1.6-1.1,2.1-1.9c0.5-0.8,0.7-1.8,0.7-2.9c0-1.1-0.2-2-0.7-2.9 c-0.5-0.8-1.2-1.5-2.1-1.9s-2-0.7-3.3-0.7h-7.1v20.1h1.6v-9.2h3.7l7.5,9.2h2L113.1,23.9z M107.5,22.5v-8.2h5.6 c1.5,0,2.6,0.4,3.4,1.1c0.8,0.7,1.2,1.7,1.2,3c0,1.2-0.4,2.2-1.2,3c-0.8,0.7-1.9,1.1-3.4,1.1H107.5z"></path> <path class="st1" d="M140.7,15.6c-0.9-0.9-1.9-1.7-3.2-2.2c-1.2-0.5-2.5-0.8-3.9-0.8c-1.4,0-2.7,0.3-3.9,0.8 c-1.2,0.5-2.3,1.3-3.2,2.2c-0.9,0.9-1.6,2-2.1,3.3c-0.5,1.3-0.8,2.6-0.8,4.1c0,1.4,0.3,2.8,0.8,4c0.5,1.3,1.2,2.4,2.1,3.3 c0.9,1,2,1.7,3.2,2.2c1.2,0.5,2.5,0.8,3.9,0.8c1.4,0,2.7-0.3,3.9-0.8c1.2-0.5,2.2-1.3,3.1-2.2c0.9-0.9,1.6-2,2.1-3.3 c0.5-1.3,0.8-2.6,0.8-4c0-1.5-0.3-2.8-0.8-4.1C142.3,17.7,141.6,16.6,140.7,15.6z M140.9,27.5c-0.7,1.3-1.7,2.4-3,3.2 c-1.3,0.8-2.7,1.2-4.3,1.2c-1.2,0-2.3-0.2-3.3-0.7c-1-0.4-1.9-1.1-2.6-1.9c-0.7-0.8-1.3-1.8-1.7-2.8c-0.4-1.1-0.6-2.3-0.6-3.5 c0-1.7,0.4-3.2,1.1-4.5c0.7-1.3,1.7-2.4,3-3.1c1.3-0.8,2.7-1.2,4.3-1.2c1.2,0,2.3,0.2,3.3,0.7c1,0.4,1.9,1.1,2.6,1.9 c0.7,0.8,1.3,1.7,1.7,2.8c0.4,1.1,0.6,2.2,0.6,3.5C142,24.7,141.6,26.2,140.9,27.5z"></path> <path class="st1" d="M158.7,22.8c-0.6-0.5-1.2-0.8-1.9-1.1c-0.7-0.3-1.4-0.6-2.1-0.8c-0.7-0.2-1.3-0.5-1.9-0.8 c-0.6-0.3-1-0.6-1.4-1c-0.4-0.4-0.5-0.9-0.5-1.5c0-0.7,0.3-1.3,0.9-1.7c0.6-0.4,1.4-0.6,2.4-0.6c0.8,0,1.6,0.2,2.2,0.5 c0.6,0.3,1.3,0.8,1.8,1.5l2.3-2.3c-0.7-0.8-1.5-1.5-2.6-2c-1.1-0.5-2.3-0.8-3.6-0.8c-1.3,0-2.4,0.2-3.4,0.7c-1,0.5-1.8,1.1-2.4,2 c-0.6,0.9-0.9,1.9-0.9,3.1c0,1.1,0.2,1.9,0.5,2.6c0.4,0.7,0.8,1.3,1.4,1.7c0.6,0.4,1.2,0.8,1.9,1.1c0.7,0.3,1.4,0.5,2.1,0.8 c0.7,0.2,1.3,0.5,1.9,0.8c0.6,0.3,1,0.6,1.4,1.1c0.4,0.4,0.5,1,0.5,1.7c0,0.8-0.3,1.5-1,1.9c-0.7,0.5-1.6,0.7-2.7,0.7 c-1.2,0-2.2-0.2-3-0.7c-0.8-0.5-1.5-1.1-2-1.9l-2.3,2.3c0.9,1.1,1.9,2,3.1,2.6c1.1,0.6,2.5,0.9,4.2,0.9c2.2,0,4-0.5,5.3-1.6 c1.3-1.1,2-2.5,2-4.4c0-1.1-0.2-2-0.5-2.7C159.8,23.9,159.3,23.3,158.7,22.8z"></path> <path class="st1" d="M173.4,12.4H171l-8.5,20.7h3.6l1.6-4h8.9l1.6,4h3.7L173.4,12.4z M168.9,26.2l3.3-8.2l3.3,8.2H168.9z"></path> <polygon class="st1" points="197.9,30 197.9,33.1 184.8,33.1 184.8,12.4 188.2,12.4 188.2,30 "></polygon> <polygon class="st1" points="205.7,30 205.7,24 211.3,24 211.3,21 205.7,21 205.7,15.5 214.8,15.5 214.8,12.4 205.7,12.4 202.2,12.4 202.2,12.4 202.2,33.1 202.2,33.1 202.2,33.1 214.9,33.1 214.9,30 "></polygon> </g> </svg> 